# xmcd
#
# Track frame offsets: 
#        150
#        8852
#        22477
#        32272
#        41265
#        51955
#        62845
#        79617
#        91447
#        102977
#        114427
#        123879
#        133682
#        144557
#        156240
#        167182
#        177352
#        186270
#        196705
#        208715
#        220215
#        232585
#        244822
#        255670
#        265177
#        277935
#        287410
#        297080
#
# Disc length: 4094 seconds
#
# Revision: 0
# Processed by: cddbd v1.5.1PL0 Copyright (c) Steve Scherf et al.
# Submitted via: ExactAudioCopy v0.95a4
#
DISCID=8b0ffc1c
DTITLE=Various Artist - The 'D' Singles Volume 4 - Disc 1
DYEAR=1900
DGENRE=Country
TTITLE0=Dessie Faulner: I Dare You To Love Me
TTITLE1=Dessie Faulner: City Life
TTITLE2=Carl Sauceman: I Walk A Lonely Street
TTITLE3=Carl Sauceman: Please Be My Love
TTITLE4=Merl Lindsay: Picks And Bows
TTITLE5=Merl Lindsay: Lets Go Dancing
TTITLE6=Ernie Kucera: Days Of Youth Waltz
TTITLE7=Ernie Kucera: Pan Handle Polka
TTITLE8=Neal Jones: Woman Of Sin
TTITLE9=Neal Jones: Woman Behind This Man
TTITLE10=Merl Lindsay: Hey Hey Little Boy Blue
TTITLE11=Merl Lindsay: Rockin' Water Baby
TTITLE12=Mac McGee: A Lock Without A Key
TTITLE13=Mac McGee: I've Closed The Door (To Heartaches)
TTITLE14=Al Dean: Handful Of Ashes
TTITLE15=Al Dean: Horses Carry Tales
TTITLE16=Mildred Imes: I'm Through With You
TTITLE17=Mildred Imes: The Thoughts Of Losing You
TTITLE18=Nick Williams: Springtime In Heaven
TTITLE19=The Treece-Reece Trio: How Many Heartaches
TTITLE20=Jimmie and Harmon and The Circle C Band: Wasted Love
TTITLE21=Jimmie and Harmon and The Circle C Band: Time To Forget
TTITLE22=Tony Douglas: The Little Red Hen, The Rooster and The Mouse
TTITLE23=Tony Douglas: Little Boy
TTITLE24=Don Ward: You'll Be The One
TTITLE25=Don Ward: Call Me On The Phone
TTITLE26=Ronald Tyler: I Want To Know
TTITLE27=Ronald Tyler: Born To Be Blue
EXTD=
EXTT0=
EXTT1=
EXTT2=
EXTT3=
EXTT4=
EXTT5=
EXTT6=
EXTT7=
EXTT8=
EXTT9=
EXTT10=
EXTT11=
EXTT12=
EXTT13=
EXTT14=
EXTT15=
EXTT16=
EXTT17=
EXTT18=
EXTT19=
EXTT20=
EXTT21=
EXTT22=
EXTT23=
EXTT24=
EXTT25=
EXTT26=
EXTT27=
PLAYORDER=
